<svg xmlns="http://www.w3.org/2000/svg" version="1.1" xmlns:xlink="http://www.w3.org/1999/xlink" xmlns:svgjs="http://svgjs.dev/svgjs" width="1000" height="512" viewBox="0 0 1000 512"><g transform="matrix(1,0,0,1,-0.6060606060606233,0.24805336208549988)"><svg viewBox="0 0 396 203" data-background-color="#77d4fc" preserveAspectRatio="xMidYMid meet" height="512" width="1000" xmlns="http://www.w3.org/2000/svg" xmlns:xlink="http://www.w3.org/1999/xlink"><g id="tight-bounds" transform="matrix(1,0,0,1,0.2400000000000091,-0.09834928223311579)"><svg viewBox="0 0 395.52 203.19669856446623" height="203.19669856446623" width="395.52"><rect width="395.52" height="203.19669856446623" fill="url(#5ea51f56-a8c4-4c69-baca-b9b5416c1fab)" mask="url(&quot;#fecd4b37-1cc6-4c61-956b-d3ab4d1234b0&quot;)" data-fill-palette-color="accent"></rect><rect width="395.52" height="203.19669856446623" fill="url(#23562f02-c566-4df2-9dad-7144c842d6e9)" mask="url(&quot;#acae6b52-6418-4420-b680-190b721eeb3e&quot;)" data-fill-palette-color="primary"></rect><g><svg viewBox="0 0 951.5655735570731 488.86271999999997" height="203.19669856446623" width="395.52"><g transform="matrix(1,0,0,1,0,187.51506731707315)"><svg viewBox="0 0 395.52 113.83258536585366" height="113.83258536585366" width="395.52"><g id="textblocktransform"><svg viewBox="0 0 395.52 113.83258536585366" height="113.83258536585366" width="395.52" id="textblock"><g><svg viewBox="0 0 395.52 113.83258536585366" height="113.83258536585366" width="395.52"><g transform="matrix(1,0,0,1,0,0)"><svg width="395.52" viewBox="4.32 -36.11 130.12 37.45" height="113.83258536585366" data-palette-color="url(#23562f02-c566-4df2-9dad-7144c842d6e9)"></svg></g></svg></g></svg></g></svg></g><g transform="matrix(1,0,0,1,462.7028535570731,0)"><svg viewBox="0 0 488.86271999999997 488.86271999999997" height="488.86271999999997" width="488.86271999999997"><g><svg viewBox="0 0 488.86271999999997 488.86271999999997" height="488.86271999999997" width="488.86271999999997"><g transform="matrix(1,0,0,1,129.2482686774192,129.20531187289984)"><svg viewBox="0 0 230.3661826451616 230.45209625420028" height="230.45209625420028" width="230.3661826451616"><g><svg xmlns="http://www.w3.org/2000/svg" data-name="Layer 2" viewBox="58.70754119786906 58.65519046845172 394.5077088328102 394.65483798462503" x="0" y="0" height="230.45209625420028" width="230.3661826451616" class="icon-n$-0" data-fill-palette-color="accent" id="n$-0"></svg></g></svg></g><g></g></svg></g></svg></g></svg></g><defs></defs><mask id="acae6b52-6418-4420-b680-190b721eeb3e"><g id="SvgjsG1084"><svg viewBox="0 0 395.52 203.19669856446623" height="203.19669856446623" width="395.52"><g><svg viewBox="0 0 951.5655735570731 488.86271999999997" height="203.19669856446623" width="395.52"><g transform="matrix(1,0,0,1,0,187.51506731707315)"><svg viewBox="0 0 395.52 113.83258536585366" height="113.83258536585366" width="395.52"><g id="SvgjsG1083"><svg viewBox="0 0 395.52 113.83258536585366" height="113.83258536585366" width="395.52" id="SvgjsSvg1082"><g><svg viewBox="0 0 395.52 113.83258536585366" height="113.83258536585366" width="395.52"><g transform="matrix(1,0,0,1,0,0)"><svg width="395.52" viewBox="4.32 -36.11 130.12 37.45" height="113.83258536585366" data-palette-color="url(#23562f02-c566-4df2-9dad-7144c842d6e9)"><path d="M4.32 0L4.32-34.55 14.48-34.55Q21.58-34.55 24.9-33.54L24.9-33.54Q28.69-32.37 30.75-30.54 32.81-28.71 33.98-26.76L33.98-26.76Q36.38-22.78 36.38-17.72L36.38-17.72Q36.38-9.77 30.66-4.83L30.66-4.83Q26.61-1.29 21.12-0.46L21.12-0.46Q18.07 0 12.57 0L12.57 0 4.32 0ZM16.77-32.69L16.77-2.03Q17.16-2 17.48-2L17.48-2 18.04-2Q24.66-2 29.35-6.13L29.35-6.13Q34.3-10.47 34.3-17.68L34.3-17.68Q34.3-22.22 32.13-25.85L32.13-25.85Q28.98-31.15 22.17-32.28L22.17-32.28Q19.95-32.64 16.77-32.69L16.77-32.69ZM42.43 0L42.43-34.55 54.88-34.55 54.88 0 42.43 0ZM65.28-19.48L65.28-3.49 65.35-1.05Q65.35-0.42 65.01-0.07 64.67 0.27 64.19 0.27 63.72 0.27 63.4-0.05 63.08-0.37 63.08-0.74 63.08-1.12 63.14-1.45 63.2-1.78 63.25-2.2L63.25-2.2Q63.37-2.91 63.37-5.74L63.37-5.74 63.37-36.11 89.91-15.06 89.91-29.61Q89.91-31.27 89.81-31.98L89.81-31.98Q89.69-33.13 89.69-33.59L89.69-33.59Q89.69-34.81 90.74-34.81L90.74-34.81Q91.16-34.81 91.54-34.52 91.91-34.23 91.91-33.67L91.91-33.67 91.91-32.81 91.82-29.27 91.82 1.34 65.28-19.48ZM104.17-4.41Q101.75-6.76 100.32-10.12 98.89-13.48 98.89-17.44 98.89-21.41 100.25-24.57 101.6-27.73 104-30.05L104-30.05Q109.12-34.99 116.86-34.99L116.86-34.99Q124.55-34.99 129.46-30.13L129.46-30.13Q134.44-25.2 134.44-17.33L134.44-17.33Q134.44-9.5 129.34-4.44L129.34-4.44Q126.14-1.32 121.48-0.12L121.48-0.12Q119.16 0.46 116.09 0.46 113.03 0.46 109.81-0.79 106.58-2.05 104.17-4.41ZM116.84-33.2L116.84-33.2Q115.5-33.2 114.32-33.01L114.32-33.01 114.32-1.51Q115.45-1.32 116.84-1.32L116.84-1.32Q123.36-1.32 127.82-5.66L127.82-5.66Q132.49-10.18 132.49-17.33L132.49-17.33Q132.49-24.15 128.12-28.66L128.12-28.66Q123.7-33.2 116.84-33.2Z" opacity="1" transform="matrix(1,0,0,1,0,0)" fill="white" class="undefined-text-0" id="SvgjsPath1081"></path></svg></g></svg></g></svg></g></svg></g><g transform="matrix(1,0,0,1,462.7028535570731,0)"><svg viewBox="0 0 488.86271999999997 488.86271999999997" height="488.86271999999997" width="488.86271999999997"><g><svg viewBox="0 0 488.86271999999997 488.86271999999997" height="488.86271999999997" width="488.86271999999997"><g transform="matrix(1,0,0,1,129.2482686774192,129.20531187289984)"><svg viewBox="0 0 230.3661826451616 230.45209625420028" height="230.45209625420028" width="230.3661826451616"><g><svg xmlns="http://www.w3.org/2000/svg" data-name="Layer 2" viewBox="58.70754119786906 58.65519046845172 394.5077088328102 394.65483798462503" x="0" y="0" height="230.45209625420028" width="230.3661826451616" class="icon-n$-0" data-fill-palette-color="accent" id="SvgjsSvg1080"></svg></g></svg></g><g></g></svg></g></svg></g></svg></g><defs><mask></mask></defs></svg></g></mask><linearGradient x1="0" x2="1" y1="0.548" y2="0.55" id="23562f02-c566-4df2-9dad-7144c842d6e9"><stop stop-color="#ff6cab" offset="0"></stop><stop stop-color="#7366ff" offset="1"></stop></linearGradient><mask id="fecd4b37-1cc6-4c61-956b-d3ab4d1234b0"><g id="SvgjsG1093"><svg viewBox="0 0 395.52 203.19669856446623" height="203.19669856446623" width="395.52"><g><svg viewBox="0 0 951.5655735570731 488.86271999999997" height="203.19669856446623" width="395.52"><g transform="matrix(1,0,0,1,0,187.51506731707315)"><svg viewBox="0 0 395.52 113.83258536585366" height="113.83258536585366" width="395.52"><g id="SvgjsG1092"><svg viewBox="0 0 395.52 113.83258536585366" height="113.83258536585366" width="395.52" id="SvgjsSvg1091"><g><svg viewBox="0 0 395.52 113.83258536585366" height="113.83258536585366" width="395.52"><g transform="matrix(1,0,0,1,0,0)"><svg width="395.52" viewBox="4.32 -36.11 130.12 37.45" height="113.83258536585366" data-palette-color="url(#23562f02-c566-4df2-9dad-7144c842d6e9)"></svg></g></svg></g></svg></g></svg></g><g transform="matrix(1,0,0,1,462.7028535570731,0)"><svg viewBox="0 0 488.86271999999997 488.86271999999997" height="488.86271999999997" width="488.86271999999997"><g><svg viewBox="0 0 488.86271999999997 488.86271999999997" height="488.86271999999997" width="488.86271999999997"><g transform="matrix(1,0,0,1,129.2482686774192,129.20531187289984)"><svg viewBox="0 0 230.3661826451616 230.45209625420028" height="230.45209625420028" width="230.3661826451616"><g><svg xmlns="http://www.w3.org/2000/svg" data-name="Layer 2" viewBox="58.70754119786906 58.65519046845172 394.5077088328102 394.65483798462503" x="0" y="0" height="230.45209625420028" width="230.3661826451616" class="icon-n$-0" data-fill-palette-color="accent" id="SvgjsSvg1090"><path d="M149 356.2a19.17 19.17 0 0 1-3.44 12.13c-8.92 12.66-25.72 34.3-38.24 50.22a11.07 11.07 0 0 0 8.58 17.9 11.15 11.15 0 0 0 4.73-1.07c14.82-6.9 29.56-14.8 42.57-21.76 9.44-5.06 17.6-9.43 23.68-12.28a42.52 42.52 0 0 1 15.64-4c2.23-0.12 4.43-0.27 6.61-0.43l-62 47.42a1.54 1.54 0 0 1-2.42-1.53 4.34 4.34 0 0 0-8.51-1.67 10.22 10.22 0 0 0 10 12.18 10.32 10.32 0 0 0 6.13-2l73-55.82A457.78 457.78 0 0 0 276.42 387 62.9 62.9 0 0 0 312 364.48c8.32-10.63 15-20.66 19.18-27.21A105 105 0 0 1 351 314.13c3.83-3.32 7.94-6.65 12.22-9.91a15.62 15.62 0 0 1 18.05-0.6L433.53 338a12.7 12.7 0 0 0 19-14.72c-14.82-43.49-41.76-77.72-65.42-101.35 27.51-51.44 57.28-83.86 57.57-84.18a4.34 4.34 0 0 0-4.21-7.16c-24.05 5.89-51.18 19-80.64 38.88a4.34 4.34 0 0 0 4.85 7.19c23.08-15.6 44.58-26.85 64.12-33.58a485.64 485.64 0 0 0-48.16 72.57q-3.28-3.09-6.43-5.92c-28.15-25.18-51.84-38-52.83-38.57a4.34 4.34 0 0 0-6.07 5.45c11.58 28.61 18.85 68.23 20.31 87.22a18.46 18.46 0 0 1-7.15 16.23 113.91 113.91 0 0 1-21.89 12.58 4.33 4.33 0 1 0 3.56 7.9A122.05 122.05 0 0 0 333.71 287a27.08 27.08 0 0 0 10.55-23.8c-1.53-20-7.92-52.36-16.58-78.05 25.44 16.41 90.6 64.52 116.64 141a4 4 0 0 1-6 4.68l-52.22-34.38a24.33 24.33 0 0 0-28.08 0.94c-4.42 3.37-8.67 6.82-12.64 10.26a113.77 113.77 0 0 0-21.46 25c-4 6.38-10.58 16.16-18.69 26.52a54.23 54.23 0 0 1-30.71 19.37 447.45 447.45 0 0 1-72.43 10.18 51.11 51.11 0 0 0-18.83 4.8c-6.29 2.95-14.54 7.37-24.09 12.48-12.91 6.92-27.54 14.75-42.14 21.55a2.22 2.22 0 0 1-2.83-0.67 2.25 2.25 0 0 1 0-2.94c12.59-16 29.49-37.77 38.52-50.59a27.82 27.82 0 0 0 5-17.64A832.43 832.43 0 0 0 139.3 227.6C124.71 163.5 104 112.16 77.45 74.65a423.66 423.66 0 0 1 70.34 46.26c43 34.67 100.81 95.08 132.41 186a4.33 4.33 0 0 0 8.19-2.84A406.16 406.16 0 0 0 269.12 258c10-10.28 25.78-25.75 45-42.32a4.34 4.34 0 0 0-5.66-6.57C290.28 224.8 275.17 239.5 265 249.85c-32.93-63.28-77.08-107.71-111.75-135.68C105.72 75.82 66.38 59.67 64.73 59a4.33 4.33 0 0 0-5 6.78C133.38 154.48 147.05 323.27 149 356.2Z" fill="white"></path><path d="M387.41 266.53a4.34 4.34 0 0 0 2.77-7.68l-6.87-5.69a4.33 4.33 0 1 0-5.53 6.67l6.87 5.7A4.32 4.32 0 0 0 387.41 266.53Z" fill="white"></path></svg></g></svg></g><g><path d="M16.264 325.205L73.145 302.248 79.893 318.967C83.041 326.769 84.801 332.712 85.173 336.797V336.797C85.561 341.47 85.209 345.344 84.117 348.42 83.024 351.496 81.665 354.111 80.039 356.264V356.264C76.731 360.653 72.303 363.967 66.755 366.206V366.206C58.013 369.734 49.671 369.453 41.73 365.362V365.362C36.046 362.481 31.534 358.211 28.192 352.55V352.55C26.328 349.405 24.18 344.818 21.747 338.791V338.791ZM78.369 323.975L27.869 344.357C28.017 344.796 28.161 345.19 28.301 345.537V345.537L28.675 346.465C31.607 353.729 36.377 359.019 42.985 362.334V362.334C49.953 365.849 57.388 366.012 65.29 362.822V362.822C70.276 360.81 74.285 357.805 77.318 353.806V353.806C81.735 348.001 83.051 341.114 81.266 333.144V333.144C80.684 330.539 79.718 327.482 78.369 323.975ZM137.347 469.573L163.897 414.278 183.832 423.849 157.282 479.145ZM289.621 454.61L297.738 481.818 299.093 485.931C299.309 486.655 299.282 487.267 299.012 487.767 298.744 488.273 298.339 488.607 297.798 488.768 297.257 488.93 296.753 488.884 296.287 488.633 295.82 488.374 295.522 488.03 295.393 487.6 295.267 487.176 295.18 486.765 295.132 486.367 295.093 485.974 295.029 485.535 294.941 485.05V485.05C294.846 484.205 294.318 482.174 293.359 478.959V478.959L277.942 427.283 333.775 449.62 326.388 424.858C325.827 422.98 325.371 421.653 325.019 420.877V420.877C324.495 419.62 324.154 418.727 323.996 418.199V418.199C323.584 416.816 323.974 415.947 325.168 415.591V415.591C325.637 415.451 326.137 415.483 326.667 415.687 327.19 415.893 327.546 416.312 327.735 416.945V416.945L328.17 418.403 329.801 424.479 345.344 476.576ZM445.058 369.198C441.313 370.591 437.282 371.203 432.964 371.037 428.649 370.865 424.368 369.775 420.122 367.769 415.876 365.762 412.404 363.232 409.706 360.181 407.005 357.135 405.019 353.746 403.749 350.014V350.014C401.064 342.03 401.678 333.896 405.593 325.613V325.613C409.484 317.379 415.27 311.867 422.951 309.075V309.075C430.749 306.241 438.855 306.812 447.267 310.788V310.788C455.654 314.752 461.263 320.742 464.092 328.756V328.756C465.823 333.76 466.149 339.06 465.07 344.655V344.655C464.523 347.438 463.474 350.469 461.924 353.749 460.374 357.029 458.11 360.074 455.134 362.883 452.155 365.698 448.796 367.803 445.058 369.198ZM408.437 327.002V327.002C407.756 328.442 407.224 329.839 406.84 331.194V331.194L457.405 355.092C458.184 353.984 458.926 352.686 459.629 351.197V351.197C462.928 344.219 463.38 337.239 460.988 330.259V330.259C458.51 322.983 453.443 317.535 445.788 313.917V313.917C438.502 310.474 431.335 309.947 424.288 312.338V312.338C417.19 314.773 411.906 319.661 408.437 327.002Z" fill="white"></path><path d="M61.289 198.303L3.092 174.597 10.059 157.492C13.31 149.512 16.26 143.886 18.908 140.614V140.614C21.956 136.902 24.979 134.308 27.976 132.832 30.976 131.349 33.841 130.396 36.571 129.972V129.972C42.134 129.107 47.752 129.83 53.425 132.141V132.141C62.364 135.782 68.296 141.939 71.223 150.613V150.613C73.34 156.782 73.609 163.142 72.028 169.693V169.693C71.157 173.329 69.464 178.233 66.951 184.404V184.404ZM14.764 154.9L66.418 175.941C66.623 175.51 66.797 175.118 66.941 174.765V174.765L67.326 173.819C70.354 166.387 70.623 159.096 68.134 151.946V151.946C65.522 144.392 60.173 138.968 52.085 135.674V135.674C46.986 133.597 41.897 132.946 36.818 133.722V133.722C29.428 134.834 23.543 138.96 19.165 146.099V146.099C17.741 148.422 16.274 151.355 14.764 154.9ZM158.222 79.654L131.012 23.011 151.423 13.206 178.634 69.849ZM294.628 29.987L286.414 57.89 285.287 62.188C285.069 62.926 284.703 63.435 284.188 63.716 283.679 63.999 283.147 64.059 282.592 63.896 282.037 63.732 281.628 63.41 281.365 62.928 281.107 62.455 281.043 61.996 281.174 61.552 281.303 61.115 281.46 60.714 281.645 60.35 281.83 59.986 282.019 59.573 282.212 59.112V59.112C282.6 58.325 283.278 56.286 284.247 52.995V52.995L299.848 0 335.345 50.35 342.818 24.964C343.387 23.031 343.737 21.637 343.868 20.782V20.782C344.117 19.407 344.321 18.449 344.48 17.907V17.907C344.897 16.49 345.716 15.962 346.937 16.321V16.321C347.42 16.463 347.831 16.769 348.168 17.237 348.512 17.707 348.588 18.269 348.396 18.922V18.922L347.958 20.41 345.962 26.539 330.237 79.955ZM414.794 149.091C416.107 145.211 418.226 141.613 421.152 138.298 424.076 134.976 427.708 132.277 432.049 130.201 436.39 128.124 440.643 127 444.808 126.826 448.975 126.659 452.952 127.276 456.739 128.679V128.679C464.821 131.71 470.885 137.456 474.931 145.918V145.918C478.955 154.33 479.592 162.494 476.844 170.41V170.41C474.058 178.434 468.364 184.504 459.761 188.618V188.618C451.189 192.718 442.806 193.298 434.61 190.36V190.36C429.516 188.495 425.095 185.325 421.347 180.848V180.848C419.489 178.62 417.759 175.83 416.155 172.477 414.552 169.125 413.595 165.357 413.285 161.175 412.975 156.993 413.478 152.965 414.794 149.091ZM471.985 147.282V147.282C471.283 145.814 470.521 144.489 469.698 143.305V143.305L418.019 168.021C418.391 169.352 418.942 170.779 419.67 172.302V172.302C423.079 179.431 428.329 184.302 435.419 186.917V186.917C442.802 189.656 450.405 189.154 458.228 185.413V185.413C465.682 181.848 470.734 176.493 473.383 169.349V169.349C476.04 162.141 475.574 154.785 471.985 147.282Z" fill="white"></path><path d="M3.73 252.724C3.73 238.868 14.963 227.635 28.819 227.635 42.675 227.635 53.908 238.868 53.908 252.724 53.908 266.581 42.675 277.813 28.819 277.813 14.963 277.813 3.73 266.581 3.73 252.724ZM435.593 252.724C435.593 238.868 446.825 227.635 460.682 227.635 474.538 227.635 485.771 238.868 485.771 252.724 485.771 266.581 474.538 277.813 460.682 277.813 446.825 277.813 435.593 266.581 435.593 252.724Z" fill="white"></path></g></svg></g></svg></g></svg></g><defs><mask></mask></defs><mask><g id="SvgjsG1089"><svg viewBox="0 0 395.52 203.19669856446623" height="203.19669856446623" width="395.52"><g><svg viewBox="0 0 951.5655735570731 488.86271999999997" height="203.19669856446623" width="395.52"><g transform="matrix(1,0,0,1,0,187.51506731707315)"><svg viewBox="0 0 395.52 113.83258536585366" height="113.83258536585366" width="395.52"><g id="SvgjsG1088"><svg viewBox="0 0 395.52 113.83258536585366" height="113.83258536585366" width="395.52" id="SvgjsSvg1087"><g><svg viewBox="0 0 395.52 113.83258536585366" height="113.83258536585366" width="395.52"><g transform="matrix(1,0,0,1,0,0)"><svg width="395.52" viewBox="4.32 -36.11 130.12 37.45" height="113.83258536585366" data-palette-color="url(#23562f02-c566-4df2-9dad-7144c842d6e9)"></svg></g></svg></g></svg></g></svg></g><g transform="matrix(1,0,0,1,462.7028535570731,0)"><svg viewBox="0 0 488.86271999999997 488.86271999999997" height="488.86271999999997" width="488.86271999999997"><g><svg viewBox="0 0 488.86271999999997 488.86271999999997" height="488.86271999999997" width="488.86271999999997"><g transform="matrix(1,0,0,1,129.2482686774192,129.20531187289984)"><svg viewBox="0 0 230.3661826451616 230.45209625420028" height="230.45209625420028" width="230.3661826451616"><g><svg xmlns="http://www.w3.org/2000/svg" data-name="Layer 2" viewBox="58.70754119786906 58.65519046845172 394.5077088328102 394.65483798462503" x="0" y="0" height="230.45209625420028" width="230.3661826451616" class="icon-n$-0" data-fill-palette-color="accent" id="SvgjsSvg1085"></svg></g></svg></g><g></g></svg></g></svg></g></svg></g><defs><mask></mask></defs></svg></g></mask></svg></g></mask><linearGradient x1="0" x2="1" y1="0.548" y2="0.55" id="5ea51f56-a8c4-4c69-baca-b9b5416c1fab"><stop stop-color="#ff6cab" offset="0"></stop><stop stop-color="#7366ff" offset="1"></stop></linearGradient></svg><rect width="395.52" height="203.19669856446623" fill="none" stroke="none" visibility="hidden"></rect></g></svg></g></svg>